<svg xmlns="http://www.w3.org/2000/svg" xmlns:xlink="http://www.w3.org/1999/xlink" width="40" zoomAndPan="magnify" viewBox="0 0 30 30.000001" height="40" preserveAspectRatio="xMidYMid meet" version="1.0"><defs><clipPath id="7afa088376"><path d="M 10.644531 10.675781 L 19.367188 10.675781 L 19.367188 18.328125 L 10.644531 18.328125 Z M 10.644531 10.675781 " clip-rule="nonzero"/></clipPath><clipPath id="34c2cc4c5e"><path d="M 10.992188 11.921875 C 10.285156 13.085938 10.78125 14.21875 11.40625 14.820312 L 15.0625 18.328125 L 18.640625 14.832031 C 19.222656 14.183594 19.445312 13.5 19.320312 12.734375 C 19.152344 11.679688 18.28125 10.859375 17.203125 10.742188 C 16.546875 10.671875 15.90625 10.859375 15.410156 11.273438 C 15.277344 11.382812 15.15625 11.507812 15.054688 11.640625 C 14.929688 11.488281 14.785156 11.347656 14.621094 11.222656 C 14.046875 10.789062 13.320312 10.617188 12.621094 10.75 C 11.960938 10.878906 11.363281 11.304688 10.992188 11.921875 Z M 10.992188 11.921875 " clip-rule="nonzero"/></clipPath></defs><g clip-path="url(#7afa088376)"><g clip-path="url(#34c2cc4c5e)"><path fill="#ff3131" d="M 10.644531 10.707031 L 19.367188 10.707031 L 19.367188 18.328125 L 10.644531 18.328125 Z M 10.644531 10.707031 " fill-opacity="1" fill-rule="nonzero"/></g></g></svg>